<?xml version="1.0" encoding="UTF-8" standalone="no"?>
<!-- Created with Inkscape (http://www.inkscape.org/) -->
<svg xmlns:dc="http://purl.org/dc/elements/1.1/" xmlns:cc="http://creativecommons.org/ns#" xmlns:rdf="http://www.w3.org/1999/02/22-rdf-syntax-ns#" xmlns:svg="http://www.w3.org/2000/svg" xmlns="http://www.w3.org/2000/svg" xmlns:sodipodi="http://sodipodi.sourceforge.net/DTD/sodipodi-0.dtd" xmlns:inkscape="http://www.inkscape.org/namespaces/inkscape" width="196.80785mm" height="28.717142mm" viewBox="0 0 196.80785 28.717142" version="1.1" id="svg8857" inkscape:version="0.92.3 (2405546, 2018-03-11)" sodipodi:docname="thrift.svg">
  <defs id="defs8851"/>
  <sodipodi:namedview id="base" pagecolor="#ffffff" bordercolor="#666666" borderopacity="1.0" inkscape:pageopacity="0.0" inkscape:pageshadow="2" inkscape:zoom="0.98994949" inkscape:cx="-487.14286" inkscape:cy="-20.379273" inkscape:document-units="mm" inkscape:current-layer="layer1" showgrid="false" fit-margin-top="0" fit-margin-left="0" fit-margin-right="0" fit-margin-bottom="0" inkscape:window-width="3726" inkscape:window-height="2049" inkscape:window-x="114" inkscape:window-y="55" inkscape:window-maximized="1"/>
  <title>Apache Thrift logo</title>
  <metadata>
    <rdf:RDF>
      <cc:Work rdf:about="">
        <dc:format>image/svg+xml</dc:format>
        <dc:type rdf:resource="http://purl.org/dc/dcmitype/StillImage"/>
        <dc:title/>
      </cc:Work>
    </rdf:RDF>
  </metadata>
  <g inkscape:label="Layer 1" inkscape:groupmode="layer" id="layer1" transform="translate(-9.0714283,-114.72417)">
    <g style="font-style:normal;font-variant:normal;font-weight:normal;font-stretch:normal;font-size:27.653265px;line-height:125%;font-family:Montserrat;-inkscape-font-specification:Montserrat;letter-spacing:0px;word-spacing:0px;fill:#353535;fill-opacity:1;stroke:none;stroke-width:1.00557327px;stroke-linecap:butt;stroke-linejoin:miter;stroke-opacity:1" id="text9404">
      <path d="m 14.491468,133.67971 -1.935728,4.39687 H 9.0714283 l 8.5172057,-19.32963 h 3.484311 l 8.517206,19.32963 H 26.10584 l -1.935729,-4.39687 z m 8.351286,-3.0142 -3.511964,-7.96414 -3.511965,7.96414 z" style="fill:#353535;fill-opacity:1;stroke-width:1.00557327px" id="path9415"/>
      <path d="m 39.71643,123.14382 q 2.958899,0 5.060547,2.04634 2.101649,2.04634 2.101649,5.4477 0,3.40135 -2.101649,5.53065 -2.073994,2.1293 -4.866974,2.1293 -2.765327,0 -4.977588,-2.43349 v 7.577 h -3.097166 v -20.07627 h 3.097166 v 2.57175 q 1.825116,-2.79298 4.784015,-2.79298 z m -4.839321,7.60465 q 0,2.10165 1.27205,3.45666 1.27205,1.32735 3.097165,1.32735 1.825116,0 3.180126,-1.32735 1.35501,-1.32736 1.35501,-3.42901 0,-2.1293 -1.327357,-3.51196 -1.327356,-1.41032 -3.180125,-1.41032 -1.852769,0 -3.124819,1.41032 -1.27205,1.38266 -1.27205,3.48431 z" style="fill:#353535;fill-opacity:1;stroke-width:1.00557327px" id="path9417"/>
      <path d="m 62.333347,138.07658 h -2.820633 v -1.96338 q -1.825116,2.18461 -4.894628,2.18461 -2.295221,0 -3.816151,-1.2997 -1.493276,-1.29971 -1.493276,-3.45666 0,-2.18461 1.603889,-3.26309 1.60389,-1.07847 4.341563,-1.07847 h 4.009724 v -0.55307 q 0,-2.93125 -3.263086,-2.93125 -2.046341,0 -4.258603,1.49328 l -1.382663,-1.93573 q 2.682367,-2.1293 6.083718,-2.1293 2.599407,0 4.23095,1.32736 1.659196,1.2997 1.659196,4.12033 z m -3.097166,-5.47534 v -1.2444 H 55.75187 q -3.346045,0 -3.346045,2.10165 0,1.07848 0.829598,1.65919 0.829598,0.55307 2.295221,0.55307 1.493276,0 2.599407,-0.8296 1.10613,-0.8296 1.10613,-2.23991 z" style="fill:#353535;fill-opacity:1;stroke-width:1.00557327px" id="path9419"/>
      <path d="m 73.198056,138.29781 q -3.069513,0 -5.281774,-2.07399 -2.212261,-2.10165 -2.212261,-5.47535 0,-3.3737 2.295221,-5.47535 2.322874,-2.1293 5.641266,-2.1293 3.318392,0 5.613613,2.29522 l -1.825116,2.23992 q -1.908075,-1.6592 -3.843804,-1.6592 -1.935728,0 -3.373698,1.2997 -1.410317,1.27205 -1.410317,3.3184 0,2.01868 1.410317,3.429 1.410316,1.41032 3.456658,1.41032 2.073995,0 3.89911,-1.88043 l 1.825116,1.99104 q -2.682367,2.71002 -6.194331,2.71002 z" style="fill:#353535;fill-opacity:1;stroke-width:1.00557327px" id="path9421"/>
      <path d="m 85.70208,130.11244 v 7.96414 h -3.097166 v -20.49107 h 3.097166 v 8.4619 q 0.663678,-1.35501 1.991035,-2.1293 1.35501,-0.77429 2.903593,-0.77429 2.488794,0 4.009723,1.52093 1.548583,1.52093 1.548583,4.39687 v 9.01496 h -3.097166 v -8.07475 q 0,-4.06503 -3.373698,-4.06503 -1.603889,0 -2.79298,1.07848 -1.18909,1.05082 -1.18909,3.09716 z" style="fill:#353535;fill-opacity:1;stroke-width:1.00557327px" id="path9423"/>
      <path d="m 114.17068,132.07583 h -11.53141 q 0.11062,1.60388 1.46563,2.5994 1.35501,0.96787 3.09716,0.96787 2.76533,0 4.2033,-1.74216 l 1.76981,1.93573 q -2.37818,2.46114 -6.19434,2.46114 -3.09716,0 -5.28177,-2.04634 -2.156954,-2.074 -2.156954,-5.53065 0,-3.48432 2.212264,-5.53066 2.21226,-2.04634 5.19881,-2.04634 3.01421,0 5.11586,1.82512 2.10164,1.79746 2.10164,4.97758 z m -11.53141,-2.43349 h 8.43425 q 0,-1.85277 -1.16144,-2.84829 -1.16144,-0.99552 -2.87594,-0.99552 -1.68685,0 -3.04186,1.05083 -1.35501,1.02317 -1.35501,2.79298 z" style="fill:#353535;fill-opacity:1;stroke-width:1.00557327px" id="path9425"/>
      <path d="m 132.85392,121.7335 v 16.34308 h -3.26308 V 121.7335 h -5.86249 v -2.98655 h 14.98807 v 2.98655 z" style="fill:#353535;fill-opacity:1;stroke-width:1.00557327px" id="path9427"/>
      <path d="m 144.73532,130.11244 v 7.96414 h -3.09716 v -20.49107 h 3.09716 v 8.4619 q 0.66368,-1.35501 1.99104,-2.1293 1.35501,-0.77429 2.90359,-0.77429 2.48879,0 4.00972,1.52093 1.54859,1.52093 1.54859,4.39687 v 9.01496 h -3.09717 v -8.07475 q 0,-4.06503 -3.3737,-4.06503 -1.60389,0 -2.79298,1.07848 -1.18909,1.05082 -1.18909,3.09716 z" style="fill:#353535;fill-opacity:1;stroke-width:1.00557327px" id="path9429"/>
      <path d="m 167.23083,126.26864 q -2.29522,0 -3.45666,1.49328 -1.16144,1.49327 -1.16144,4.00972 v 6.30494 h -3.09716 v -14.71153 h 3.09716 v 2.9589 q 0.74664,-1.38267 2.01869,-2.26757 1.2997,-0.88491 2.73767,-0.91256 l 0.0277,3.12482 q -0.083,0 -0.16592,0 z" style="fill:#353535;fill-opacity:1;stroke-width:1.00557327px" id="path9431"/>
      <path d="m 173.57681,138.07658 h -3.09716 v -14.71153 h 3.09716 z m -2.90359,-17.64278 q -0.58072,-0.58072 -0.58072,-1.38266 0,-0.80195 0.58072,-1.38267 0.58072,-0.58071 1.38266,-0.58071 0.80195,0 1.38267,0.58071 0.58072,0.58072 0.58072,1.38267 0,0.80194 -0.58072,1.38266 -0.58072,0.58072 -1.38267,0.58072 -0.80194,0 -1.38266,-0.58072 z" style="fill:#353535;fill-opacity:1;stroke-width:1.00557327px" id="path9433"/>
      <path d="m 181.85723,122.1483 v 1.21675 h 3.87146 v 2.48879 h -3.87146 v 12.22274 h -3.09717 v -12.22274 h -1.85276 v -2.48879 h 1.85276 v -1.13379 q 0,-2.32287 1.38267,-3.67788 1.41031,-1.38266 3.3737,-1.38266 1.99103,0 3.62257,1.46562 l -1.27205,2.18461 q -0.91255,-0.96787 -1.90807,-0.96787 -0.99552,0 -1.54859,0.63603 -0.55306,0.60837 -0.55306,1.65919 z" style="fill:#353535;fill-opacity:1;stroke-width:1.00557327px" id="path9435"/>
      <path d="m 192.55128,125.85384 v 7.46638 q 0,1.05083 0.55306,1.68685 0.55307,0.60837 1.54858,0.60837 0.99552,0 1.90808,-0.96786 l 1.27205,2.18461 q -1.63154,1.46562 -3.62258,1.46562 -1.96338,0 -3.3737,-1.35501 -1.38266,-1.38266 -1.38266,-3.70554 v -7.38342 h -1.85277 v -2.48879 h 1.85277 v -4.6181 h 3.09717 v 4.6181 h 3.87145 v 2.48879 z" style="fill:#353535;fill-opacity:1;stroke-width:1.00557327px" id="path9437"/>
    </g>
    <g style="font-style:normal;font-variant:normal;font-weight:normal;font-stretch:normal;font-size:7.27604151px;line-height:125%;font-family:Montserrat;-inkscape-font-specification:Montserrat;letter-spacing:0px;word-spacing:0px;fill:#353535;fill-opacity:1;stroke:none;stroke-width:0.26458332px;stroke-linecap:butt;stroke-linejoin:miter;stroke-opacity:1" id="text9408">
      <path d="m 197.66815,115.50999 v 4.30014 h -0.85857 v -4.30014 h -1.54252 v -0.78582 h 3.94362 v 0.78582 z" style="fill:#353535;fill-opacity:1;stroke-width:0.26458332px" id="path9410"/>
      <path d="m 200.99706,119.81013 h -0.85858 v -5.08596 h 1.3388 l 1.53524,3.19419 1.53525,-3.19419 h 1.33151 v 5.08596 h -0.85857 v -3.97272 l -1.77536,3.52888 h -0.48021 l -1.76808,-3.52888 z" style="fill:#353535;fill-opacity:1;stroke-width:0.26458332px" id="path9412"/>
    </g>
  </g>
</svg>
