<?xml version="1.0" encoding="iso-8859-1"?>
<!-- Uploaded to: SVG Repo, www.svgrepo.com, Generator: SVG Repo Mixer Tools -->
<svg height="800px" width="800px" version="1.1" id="Layer_1" xmlns="http://www.w3.org/2000/svg"
     xmlns:xlink="http://www.w3.org/1999/xlink"
     viewBox="0 0 505 505" xml:space="preserve">
<circle style="fill:#90DFAA;" cx="252.5" cy="252.5" r="252.5"/>
    <polygon style="fill:#395767;" points="261.3,360.9 257.3,360.9 257.3,198.1 250.7,198.1 250.7,360.9 180.2,360.9 180.2,397.3
	186.8,397.3 186.8,384.6 186.8,378 186.8,367.5 258,367.5 261.3,367.5 321.3,367.5 321.3,397.3 327.9,397.3 327.9,360.9 "/>
    <g>
	<circle style="fill:#FF7058;" cx="324.6" cy="397.3" r="10"/>
        <circle style="fill:#FF7058;" cx="183.4" cy="397.3" r="10"/>
</g>
    <polygon style="fill:#395767;" points="400.8,362.8 365.7,362.8 365.7,362.6 365.7,355.9 365.7,341.5 290.4,341.5 290.4,211.8
	283.7,211.8 283.7,348.2 359,348.2 359,411 365.7,411 365.7,369.4 400.8,369.4 "/>
    <g>
	<circle style="fill:#FF7058;" cx="361.8" cy="411" r="10"/>
        <circle style="fill:#FF7058;" cx="400.8" cy="366.1" r="10"/>
</g>
    <polygon style="fill:#395767;" points="107.3,362.8 142.4,362.8 142.4,362.6 142.4,355.9 142.4,341.5 217.7,341.5 217.7,211.8
	224.3,211.8 224.3,348.2 149,348.2 149,411 142.4,411 142.4,369.4 107.3,369.4 "/>
    <g>
	<circle style="fill:#FF7058;" cx="146.3" cy="411" r="10"/>
        <circle style="fill:#FF7058;" cx="107.3" cy="366.1" r="10"/>
</g>
    <path style="fill:#FFFFFF;" d="M378.7,186.9h-8.1c0.2-2,0.3-4,0.3-6c0-36.8-29.8-66.6-66.6-66.6c-15.2,0-29.1,5.1-40.3,13.7
	c-15.2-26.3-43.5-44-76-44c-48.5,0-87.7,39.3-87.7,87.7c0,7.2,1,14.1,2.6,20.7c-17.4,8.8-29.4,26.7-29.4,47.4
	c0,29.2,23.7,52.9,52.9,52.9h252.3c29.2,0,52.9-23.7,52.9-52.9C431.5,210.6,407.8,186.9,378.7,186.9z"/>
</svg>