<svg width="1090" height="507" viewBox="0 0 1090 507" fill="none" xmlns="http://www.w3.org/2000/svg">
<path fill-rule="evenodd" clip-rule="evenodd" d="M399 171L401.5 92L478.5 98.5L720.144 364.499L661.96 368.607L661.96 368.606L646 369.733L651.413 446.405L399 171Z" fill="#2C384C"/>
<path fill-rule="evenodd" clip-rule="evenodd" d="M421.532 460.782C377.982 489.898 324.849 507 267.5 507C187.01 507 114.823 473.311 65.7837 420H131H136H147V351.273C176.071 383.545 219.27 404 267.5 404C299.547 404 329.373 394.968 354.309 379.441L426.913 384.567L421.532 460.782ZM109 253.5C109 281.447 117.022 307.615 131 330.041V404H52.2226C19.4027 361.909 0 309.852 0 253.5C0 178.957 33.9516 111.928 88 65.5444V145H99H104H157.658C127.665 172.383 109 210.872 109 253.5ZM104 52.8483C104.499 52.4829 104.999 52.1191 105.5 51.757C150.462 19.283 206.605 0 267.5 0C345.182 0 415.13 31.3789 464 81.4922L384.53 76V152C355.548 121.889 313.847 103 267.5 103C234.474 103 203.807 112.591 178.42 129H104V52.8483Z" fill="#2C384C"/>
<path d="M212.16 70.4795C209.307 70.4795 206.72 69.8662 204.4 68.6395C202.107 67.3862 200.293 65.6662 198.96 63.4795C197.653 61.2662 197 58.7729 197 55.9995C197 53.2262 197.653 50.7462 198.96 48.5595C200.293 46.3462 202.107 44.6262 204.4 43.3995C206.72 42.1462 209.32 41.5195 212.2 41.5195C214.627 41.5195 216.813 41.9462 218.76 42.7995C220.733 43.6529 222.387 44.8795 223.72 46.4795L219.56 50.3195C217.667 48.1329 215.32 47.0395 212.52 47.0395C210.787 47.0395 209.24 47.4262 207.88 48.1995C206.52 48.9462 205.453 49.9995 204.68 51.3595C203.933 52.7195 203.56 54.2662 203.56 55.9995C203.56 57.7329 203.933 59.2795 204.68 60.6395C205.453 61.9995 206.52 63.0662 207.88 63.8395C209.24 64.5862 210.787 64.9595 212.52 64.9595C215.32 64.9595 217.667 63.8529 219.56 61.6395L223.72 65.4795C222.387 67.1062 220.733 68.3462 218.76 69.1995C216.787 70.0529 214.587 70.4795 212.16 70.4795Z" fill="#F9A826"/>
<path d="M241.07 70.4795C238.163 70.4795 235.537 69.8529 233.19 68.5995C230.87 67.3462 229.043 65.6262 227.71 63.4395C226.403 61.2262 225.75 58.7462 225.75 55.9995C225.75 53.2529 226.403 50.7862 227.71 48.5995C229.043 46.3862 230.87 44.6529 233.19 43.3995C235.537 42.1462 238.163 41.5195 241.07 41.5195C243.977 41.5195 246.59 42.1462 248.91 43.3995C251.23 44.6529 253.057 46.3862 254.39 48.5995C255.723 50.7862 256.39 53.2529 256.39 55.9995C256.39 58.7462 255.723 61.2262 254.39 63.4395C253.057 65.6262 251.23 67.3462 248.91 68.5995C246.59 69.8529 243.977 70.4795 241.07 70.4795ZM241.07 64.9595C242.723 64.9595 244.217 64.5862 245.55 63.8395C246.883 63.0662 247.923 61.9995 248.67 60.6395C249.443 59.2795 249.83 57.7329 249.83 55.9995C249.83 54.2662 249.443 52.7195 248.67 51.3595C247.923 49.9995 246.883 48.9462 245.55 48.1995C244.217 47.4262 242.723 47.0395 241.07 47.0395C239.417 47.0395 237.923 47.4262 236.59 48.1995C235.257 48.9462 234.203 49.9995 233.43 51.3595C232.683 52.7195 232.31 54.2662 232.31 55.9995C232.31 57.7329 232.683 59.2795 233.43 60.6395C234.203 61.9995 235.257 63.0662 236.59 63.8395C237.923 64.5862 239.417 64.9595 241.07 64.9595Z" fill="#F9A826"/>
<path d="M261.26 41.9995H273.98C277.02 41.9995 279.7 42.5862 282.02 43.7595C284.367 44.9062 286.18 46.5329 287.46 48.6395C288.767 50.7462 289.42 53.1995 289.42 55.9995C289.42 58.7995 288.767 61.2529 287.46 63.3595C286.18 65.4662 284.367 67.1062 282.02 68.2795C279.7 69.4262 277.02 69.9995 273.98 69.9995H261.26V41.9995ZM273.66 64.6795C276.46 64.6795 278.687 63.9062 280.34 62.3595C282.02 60.7862 282.86 58.6662 282.86 55.9995C282.86 53.3329 282.02 51.2262 280.34 49.6795C278.687 48.1062 276.46 47.3195 273.66 47.3195H267.74V64.6795H273.66Z" fill="#F9A826"/>
<path d="M315.987 64.7995V69.9995H294.307V41.9995H315.467V47.1995H300.747V53.2795H313.747V58.3195H300.747V64.7995H315.987Z" fill="#F9A826"/>
<path d="M183 214H214.8C222.4 214 229.1 215.467 234.9 218.4C240.767 221.267 245.3 225.333 248.5 230.6C251.767 235.867 253.4 242 253.4 249C253.4 256 251.767 262.133 248.5 267.4C245.3 272.667 240.767 276.767 234.9 279.7C229.1 282.567 222.4 284 214.8 284H183V214ZM214 270.7C221 270.7 226.567 268.767 230.7 264.9C234.9 260.967 237 255.667 237 249C237 242.333 234.9 237.067 230.7 233.2C226.567 229.267 221 227.3 214 227.3H199.2V270.7H214Z" fill="#F9A826"/>
<path d="M317.217 257.3C317.217 257.5 317.117 258.9 316.917 261.5H276.217C276.951 264.833 278.684 267.467 281.417 269.4C284.151 271.333 287.551 272.3 291.617 272.3C294.417 272.3 296.884 271.9 299.017 271.1C301.217 270.233 303.251 268.9 305.117 267.1L313.417 276.1C308.351 281.9 300.951 284.8 291.217 284.8C285.151 284.8 279.784 283.633 275.117 281.3C270.451 278.9 266.851 275.6 264.317 271.4C261.784 267.2 260.517 262.433 260.517 257.1C260.517 251.833 261.751 247.1 264.217 242.9C266.751 238.633 270.184 235.333 274.517 233C278.917 230.6 283.817 229.4 289.217 229.4C294.484 229.4 299.251 230.533 303.517 232.8C307.784 235.067 311.117 238.333 313.517 242.6C315.984 246.8 317.217 251.7 317.217 257.3ZM289.317 241.2C285.784 241.2 282.817 242.2 280.417 244.2C278.017 246.2 276.551 248.933 276.017 252.4H302.517C301.984 249 300.517 246.3 298.117 244.3C295.717 242.233 292.784 241.2 289.317 241.2Z" fill="#F9A826"/>
<path d="M380.027 230.2L357.327 284H341.227L318.627 230.2H334.727L349.627 266.8L365.027 230.2H380.027Z" fill="#F9A826"/>
<path d="M213.417 443.28H204.457V438H228.857V443.28H219.897V466H213.417V443.28Z" fill="#F9A826"/>
<path d="M254.024 460.8V466H232.344V438H253.504V443.2H238.784V449.28H251.784V454.32H238.784V460.8H254.024Z" fill="#F9A826"/>
<path d="M268.38 466.48C266.166 466.48 264.02 466.186 261.94 465.6C259.886 464.986 258.233 464.2 256.98 463.24L259.18 458.36C260.38 459.24 261.806 459.946 263.46 460.48C265.113 461.013 266.766 461.28 268.42 461.28C270.26 461.28 271.62 461.013 272.5 460.48C273.38 459.92 273.82 459.186 273.82 458.28C273.82 457.613 273.553 457.066 273.02 456.64C272.513 456.186 271.846 455.826 271.02 455.56C270.22 455.293 269.126 455 267.74 454.68C265.606 454.173 263.86 453.666 262.5 453.16C261.14 452.653 259.966 451.84 258.98 450.72C258.02 449.6 257.54 448.106 257.54 446.24C257.54 444.613 257.98 443.146 258.86 441.84C259.74 440.506 261.06 439.453 262.82 438.68C264.606 437.906 266.78 437.52 269.34 437.52C271.126 437.52 272.873 437.733 274.58 438.16C276.286 438.586 277.78 439.2 279.06 440L277.06 444.92C274.473 443.453 271.886 442.72 269.3 442.72C267.486 442.72 266.14 443.013 265.26 443.6C264.406 444.186 263.98 444.96 263.98 445.92C263.98 446.88 264.473 447.6 265.46 448.08C266.473 448.533 268.006 448.986 270.06 449.44C272.193 449.946 273.94 450.453 275.3 450.96C276.66 451.466 277.82 452.266 278.78 453.36C279.766 454.453 280.26 455.933 280.26 457.8C280.26 459.4 279.806 460.866 278.9 462.2C278.02 463.506 276.686 464.546 274.9 465.32C273.113 466.093 270.94 466.48 268.38 466.48Z" fill="#F9A826"/>
<path d="M290.097 443.28H281.137V438H305.537V443.28H296.577V466H290.097V443.28Z" fill="#F9A826"/>
<path d="M443.067 117.974C444.821 119.728 446.046 121.538 446.744 123.405C447.461 125.291 447.63 127.12 447.253 128.892C446.876 130.665 445.952 132.286 444.481 133.757C443.029 135.209 441.408 136.133 439.617 136.529C437.844 136.906 436.015 136.736 434.129 136.02C432.281 135.303 430.481 134.068 428.727 132.315L424.739 128.326L419.28 133.785L414.698 129.203L434.497 109.404L443.067 117.974ZM432.206 128.326C433.583 129.703 434.921 130.457 436.222 130.589C437.542 130.702 438.749 130.212 439.843 129.118C440.955 128.006 441.446 126.799 441.314 125.498C441.2 124.178 440.456 122.83 439.079 121.453L435.346 117.72L428.473 124.593L432.206 128.326Z" fill="#F9A826"/>
<path d="M454.937 129.844L459.519 134.426L443.453 150.492L453.381 160.419L449.648 164.153L435.138 149.643L454.937 129.844Z" fill="#F9A826"/>
<path d="M469.655 175.675L460.463 166.483L454.467 168.972L449.771 164.277L478.395 153.302L482.921 157.828L471.975 186.48L467.166 181.671L469.655 175.675ZM471.692 170.754L476.132 160.034L465.413 164.475L471.692 170.754Z" fill="#F9A826"/>
<path d="M511.986 186.893L492.187 206.692L488.425 202.931L490.575 181.039L478.554 193.059L474.029 188.534L493.828 168.735L497.618 172.525L495.44 194.389L507.461 182.368L511.986 186.893Z" fill="#F9A826"/>
<path d="M61.44 290.831C61.9467 289.231 62.8 287.977 64 287.071C65.1733 286.164 66.6267 285.711 68.36 285.711C70.8133 285.711 72.7067 286.671 74.04 288.591C75.3467 290.484 76 293.257 76 296.911L76 311.391L48 311.391L48 297.711C48 294.297 48.6533 291.684 49.96 289.871C51.2667 288.031 53.04 287.111 55.28 287.111C56.64 287.111 57.8533 287.444 58.92 288.111C59.9867 288.751 60.8267 289.657 61.44 290.831ZM52.88 304.951L59.48 304.951L59.48 298.511C59.48 296.911 59.2 295.697 58.64 294.871C58.08 294.044 57.2533 293.631 56.16 293.631C55.0667 293.631 54.2533 294.044 53.72 294.871C53.16 295.697 52.88 296.911 52.88 298.511L52.88 304.951ZM71.12 297.391C71.12 295.684 70.84 294.404 70.28 293.551C69.72 292.671 68.8533 292.231 67.68 292.231C65.36 292.231 64.2 293.951 64.2 297.391L64.2 304.951L71.12 304.951L71.12 297.391Z" fill="#F9A826"/>
<path d="M76.48 268.365C76.48 272.365 75.3733 275.485 73.16 277.725C70.9467 279.938 67.7867 281.045 63.68 281.045L48 281.045L48 274.565L63.44 274.565C68.4533 274.565 70.96 272.485 70.96 268.325C70.96 266.298 70.36 264.751 69.16 263.685C67.9333 262.618 66.0267 262.085 63.44 262.085L48 262.085L48 255.685L63.68 255.685C67.7867 255.685 70.9467 256.805 73.16 259.045C75.3733 261.258 76.48 264.365 76.48 268.365Z" fill="#F9A826"/>
<path d="M48 249.281L48 242.801L76 242.801L76 249.281L48 249.281Z" fill="#F9A826"/>
<path d="M48 236.156L48 229.676L70.72 229.676L70.72 215.636L76 215.636L76 236.156L48 236.156Z" fill="#F9A826"/>
<path d="M48 212.016L48 199.296C48 196.256 48.5867 193.576 49.76 191.256C50.9067 188.909 52.5333 187.096 54.64 185.816C56.7467 184.509 59.2 183.856 62 183.856C64.8 183.856 67.2533 184.509 69.36 185.816C71.4667 187.096 73.1067 188.909 74.28 191.256C75.4267 193.576 76 196.256 76 199.296L76 212.016L48 212.016ZM70.68 199.616C70.68 196.816 69.9067 194.589 68.36 192.936C66.7867 191.256 64.6667 190.416 62 190.416C59.3333 190.416 57.2267 191.256 55.68 192.936C54.1067 194.589 53.32 196.816 53.32 199.616L53.32 205.536L70.68 205.536L70.68 199.616Z" fill="#F9A826"/>
<path fill-rule="evenodd" clip-rule="evenodd" d="M668.468 460.782C712.018 489.898 765.151 507 822.5 507C902.99 507 975.177 473.311 1024.22 420H959H954H943V351.273C913.929 383.545 870.73 404 822.5 404C790.453 404 760.627 394.968 735.691 379.441L663.087 384.567L668.468 460.782ZM981 253.5C981 281.447 972.978 307.615 959 330.041V404H1037.78C1070.6 361.909 1090 309.852 1090 253.5C1090 178.957 1056.05 111.928 1002 65.5444V145H991H986H932.342C962.335 172.383 981 210.872 981 253.5ZM986 52.8483C985.501 52.4829 985.001 52.1191 984.5 51.757C939.538 19.283 883.395 0 822.5 0C744.818 0 674.87 31.3789 626 81.4922L705.47 76V152C734.452 121.889 776.153 103 822.5 103C855.526 103 886.193 112.591 911.58 129H986V52.8483Z" fill="#F9A826"/>
<path fill-rule="evenodd" clip-rule="evenodd" d="M691 171L685.5 93L611.5 98.5L369.856 364.499L428.04 368.607L428.04 368.606L444 369.733L438.587 446.405L691 171Z" fill="#F9A826"/>
<path d="M753 41.9995H765.72C768.76 41.9995 771.44 42.5862 773.76 43.7595C776.107 44.9062 777.92 46.5329 779.2 48.6395C780.507 50.7462 781.16 53.1995 781.16 55.9995C781.16 58.7995 780.507 61.2529 779.2 63.3595C777.92 65.4662 776.107 67.1062 773.76 68.2795C771.44 69.4262 768.76 69.9995 765.72 69.9995H753V41.9995ZM765.4 64.6795C768.2 64.6795 770.427 63.9062 772.08 62.3595C773.76 60.7862 774.6 58.6662 774.6 55.9995C774.6 53.3329 773.76 51.2262 772.08 49.6795C770.427 48.1062 768.2 47.3195 765.4 47.3195H759.48V64.6795H765.4Z" fill="black"/>
<path d="M807.727 64.7995V69.9995H786.047V41.9995H807.207V47.1995H792.487V53.2795H805.487V58.3195H792.487V64.7995H807.727Z" fill="black"/>
<path d="M825.003 41.9995C827.483 41.9995 829.629 42.4129 831.443 43.2395C833.283 44.0662 834.696 45.2395 835.683 46.7595C836.669 48.2795 837.163 50.0795 837.163 52.1595C837.163 54.2129 836.669 56.0129 835.683 57.5595C834.696 59.0795 833.283 60.2529 831.443 61.0795C829.629 61.8795 827.483 62.2795 825.003 62.2795H819.363V69.9995H812.883V41.9995H825.003ZM824.643 56.9995C826.589 56.9995 828.069 56.5862 829.083 55.7595C830.096 54.9062 830.603 53.7062 830.603 52.1595C830.603 50.5862 830.096 49.3862 829.083 48.5595C828.069 47.7062 826.589 47.2795 824.643 47.2795H819.363V56.9995H824.643Z" fill="black"/>
<path d="M841.789 41.9995H848.269V64.7195H862.309V69.9995H841.789V41.9995Z" fill="black"/>
<path d="M879.021 70.4795C876.114 70.4795 873.488 69.8529 871.141 68.5995C868.821 67.3462 866.994 65.6262 865.661 63.4395C864.354 61.2262 863.701 58.7462 863.701 55.9995C863.701 53.2529 864.354 50.7862 865.661 48.5995C866.994 46.3862 868.821 44.6529 871.141 43.3995C873.488 42.1462 876.114 41.5195 879.021 41.5195C881.928 41.5195 884.541 42.1462 886.861 43.3995C889.181 44.6529 891.008 46.3862 892.341 48.5995C893.674 50.7862 894.341 53.2529 894.341 55.9995C894.341 58.7462 893.674 61.2262 892.341 63.4395C891.008 65.6262 889.181 67.3462 886.861 68.5995C884.541 69.8529 881.928 70.4795 879.021 70.4795ZM879.021 64.9595C880.674 64.9595 882.168 64.5862 883.501 63.8395C884.834 63.0662 885.874 61.9995 886.621 60.6395C887.394 59.2795 887.781 57.7329 887.781 55.9995C887.781 54.2662 887.394 52.7195 886.621 51.3595C885.874 49.9995 884.834 48.9462 883.501 48.1995C882.168 47.4262 880.674 47.0395 879.021 47.0395C877.368 47.0395 875.874 47.4262 874.541 48.1995C873.208 48.9462 872.154 49.9995 871.381 51.3595C870.634 52.7195 870.261 54.2662 870.261 55.9995C870.261 57.7329 870.634 59.2795 871.381 60.6395C872.154 61.9995 873.208 63.0662 874.541 63.8395C875.874 64.5862 877.368 64.9595 879.021 64.9595Z" fill="black"/>
<path d="M911.44 60.0795V69.9995H904.96V59.9995L894.12 41.9995H901L908.48 54.4395L915.96 41.9995H922.32L911.44 60.0795Z" fill="black"/>
<path d="M763.429 274.201C756.162 274.201 749.596 272.634 743.729 269.501C737.929 266.367 733.362 262.067 730.029 256.601C726.762 251.067 725.129 244.867 725.129 238.001C725.129 231.134 726.762 224.967 730.029 219.501C733.362 213.967 737.929 209.634 743.729 206.501C749.596 203.367 756.162 201.801 763.429 201.801C770.696 201.801 777.229 203.367 783.029 206.501C788.829 209.634 793.396 213.967 796.729 219.501C800.062 224.967 801.729 231.134 801.729 238.001C801.729 244.867 800.062 251.067 796.729 256.601C793.396 262.067 788.829 266.367 783.029 269.501C777.229 272.634 770.696 274.201 763.429 274.201ZM763.429 260.401C767.562 260.401 771.296 259.467 774.629 257.601C777.962 255.667 780.562 253.001 782.429 249.601C784.362 246.201 785.329 242.334 785.329 238.001C785.329 233.667 784.362 229.801 782.429 226.401C780.562 223.001 777.962 220.367 774.629 218.501C771.296 216.567 767.562 215.601 763.429 215.601C759.296 215.601 755.562 216.567 752.229 218.501C748.896 220.367 746.262 223.001 744.329 226.401C742.462 229.801 741.529 233.667 741.529 238.001C741.529 242.334 742.462 246.201 744.329 249.601C746.262 253.001 748.896 255.667 752.229 257.601C755.562 259.467 759.296 260.401 763.429 260.401Z" fill="#2C384C"/>
<path d="M844.604 218.401C849.604 218.401 854.137 219.567 858.204 221.901C862.337 224.167 865.571 227.401 867.904 231.601C870.237 235.734 871.404 240.567 871.404 246.101C871.404 251.634 870.237 256.501 867.904 260.701C865.571 264.834 862.337 268.067 858.204 270.401C854.137 272.667 849.604 273.801 844.604 273.801C837.737 273.801 832.337 271.634 828.404 267.301V292.401H812.804V219.201H827.704V225.401C831.571 220.734 837.204 218.401 844.604 218.401ZM841.904 261.001C845.904 261.001 849.171 259.667 851.704 257.001C854.304 254.267 855.604 250.634 855.604 246.101C855.604 241.567 854.304 237.967 851.704 235.301C849.171 232.567 845.904 231.201 841.904 231.201C837.904 231.201 834.604 232.567 832.004 235.301C829.471 237.967 828.204 241.567 828.204 246.101C828.204 250.634 829.471 254.267 832.004 257.001C834.604 259.667 837.904 261.001 841.904 261.001Z" fill="#2C384C"/>
<path d="M899.947 273.801C895.48 273.801 891.114 273.267 886.847 272.201C882.58 271.067 879.18 269.667 876.647 268.001L881.847 256.801C884.247 258.334 887.147 259.601 890.547 260.601C893.947 261.534 897.28 262.001 900.547 262.001C907.147 262.001 910.447 260.367 910.447 257.101C910.447 255.567 909.547 254.467 907.747 253.801C905.947 253.134 903.18 252.567 899.447 252.101C895.047 251.434 891.414 250.667 888.547 249.801C885.68 248.934 883.18 247.401 881.047 245.201C878.98 243.001 877.947 239.867 877.947 235.801C877.947 232.401 878.914 229.401 880.847 226.801C882.847 224.134 885.714 222.067 889.447 220.601C893.247 219.134 897.714 218.401 902.847 218.401C906.647 218.401 910.414 218.834 914.147 219.701C917.947 220.501 921.08 221.634 923.547 223.101L918.347 234.201C913.614 231.534 908.447 230.201 902.847 230.201C899.514 230.201 897.014 230.667 895.347 231.601C893.68 232.534 892.847 233.734 892.847 235.201C892.847 236.867 893.747 238.034 895.547 238.701C897.347 239.367 900.214 240.001 904.147 240.601C908.547 241.334 912.147 242.134 914.947 243.001C917.747 243.801 920.18 245.301 922.247 247.501C924.314 249.701 925.347 252.767 925.347 256.701C925.347 260.034 924.347 263.001 922.347 265.601C920.347 268.201 917.414 270.234 913.547 271.701C909.747 273.101 905.214 273.801 899.947 273.801Z" fill="#2C384C"/>
<path d="M750.48 466L750.44 449.2L742.2 463.04H739.28L731.08 449.56V466H725V438H730.36L740.84 455.4L751.16 438H756.48L756.56 466H750.48Z" fill="black"/>
<path d="M776.763 466.48C773.856 466.48 771.23 465.853 768.883 464.6C766.563 463.346 764.736 461.626 763.403 459.44C762.096 457.226 761.443 454.746 761.443 452C761.443 449.253 762.096 446.786 763.403 444.6C764.736 442.386 766.563 440.653 768.883 439.4C771.23 438.146 773.856 437.52 776.763 437.52C779.67 437.52 782.283 438.146 784.603 439.4C786.923 440.653 788.75 442.386 790.083 444.6C791.416 446.786 792.083 449.253 792.083 452C792.083 454.746 791.416 457.226 790.083 459.44C788.75 461.626 786.923 463.346 784.603 464.6C782.283 465.853 779.67 466.48 776.763 466.48ZM776.763 460.96C778.416 460.96 779.91 460.586 781.243 459.84C782.576 459.066 783.616 458 784.363 456.64C785.136 455.28 785.523 453.733 785.523 452C785.523 450.266 785.136 448.72 784.363 447.36C783.616 446 782.576 444.946 781.243 444.2C779.91 443.426 778.416 443.04 776.763 443.04C775.11 443.04 773.616 443.426 772.283 444.2C770.95 444.946 769.896 446 769.123 447.36C768.376 448.72 768.003 450.266 768.003 452C768.003 453.733 768.376 455.28 769.123 456.64C769.896 458 770.95 459.066 772.283 459.84C773.616 460.586 775.11 460.96 776.763 460.96Z" fill="black"/>
<path d="M822.633 438V466H817.313L803.353 449V466H796.953V438H802.313L816.233 455V438H822.633Z" fill="black"/>
<path d="M829.258 438H835.738V466H829.258V438Z" fill="black"/>
<path d="M848.183 443.28H839.223V438H863.623V443.28H854.663V466H848.183V443.28Z" fill="black"/>
<path d="M880.279 466.48C877.372 466.48 874.745 465.853 872.399 464.6C870.079 463.346 868.252 461.626 866.919 459.44C865.612 457.226 864.959 454.746 864.959 452C864.959 449.253 865.612 446.786 866.919 444.6C868.252 442.386 870.079 440.653 872.399 439.4C874.745 438.146 877.372 437.52 880.279 437.52C883.185 437.52 885.799 438.146 888.119 439.4C890.439 440.653 892.265 442.386 893.599 444.6C894.932 446.786 895.599 449.253 895.599 452C895.599 454.746 894.932 457.226 893.599 459.44C892.265 461.626 890.439 463.346 888.119 464.6C885.799 465.853 883.185 466.48 880.279 466.48ZM880.279 460.96C881.932 460.96 883.425 460.586 884.759 459.84C886.092 459.066 887.132 458 887.879 456.64C888.652 455.28 889.039 453.733 889.039 452C889.039 450.266 888.652 448.72 887.879 447.36C887.132 446 886.092 444.946 884.759 444.2C883.425 443.426 881.932 443.04 880.279 443.04C878.625 443.04 877.132 443.426 875.799 444.2C874.465 444.946 873.412 446 872.639 447.36C871.892 448.72 871.519 450.266 871.519 452C871.519 453.733 871.892 455.28 872.639 456.64C873.412 458 874.465 459.066 875.799 459.84C877.132 460.586 878.625 460.96 880.279 460.96Z" fill="black"/>
<path d="M918.309 466L912.909 458.2H912.589H906.949V466H900.469V438H912.589C915.069 438 917.215 438.413 919.029 439.24C920.869 440.066 922.282 441.24 923.269 442.76C924.255 444.28 924.749 446.08 924.749 448.16C924.749 450.24 924.242 452.04 923.229 453.56C922.242 455.053 920.829 456.2 918.989 457L925.269 466H918.309ZM918.189 448.16C918.189 446.586 917.682 445.386 916.669 444.56C915.655 443.706 914.175 443.28 912.229 443.28H906.949V453.04H912.229C914.175 453.04 915.655 452.613 916.669 451.76C917.682 450.906 918.189 449.706 918.189 448.16Z" fill="black"/>
<path d="M1013.52 170.037C1013.52 167.13 1014.15 164.503 1015.4 162.157C1016.65 159.837 1018.37 158.01 1020.56 156.677C1022.77 155.37 1025.25 154.717 1028 154.717C1030.75 154.717 1033.21 155.37 1035.4 156.677C1037.61 158.01 1039.35 159.837 1040.6 162.157C1041.85 164.503 1042.48 167.13 1042.48 170.037C1042.48 172.943 1041.85 175.557 1040.6 177.877C1039.35 180.197 1037.61 182.023 1035.4 183.357C1033.21 184.69 1030.75 185.357 1028 185.357C1025.25 185.357 1022.77 184.69 1020.56 183.357C1018.37 182.023 1016.65 180.197 1015.4 177.877C1014.15 175.557 1013.52 172.943 1013.52 170.037ZM1019.04 170.037C1019.04 171.69 1019.41 173.183 1020.16 174.517C1020.93 175.85 1022 176.89 1023.36 177.637C1024.72 178.41 1026.27 178.797 1028 178.797C1029.73 178.797 1031.28 178.41 1032.64 177.637C1034 176.89 1035.05 175.85 1035.8 174.517C1036.57 173.183 1036.96 171.69 1036.96 170.037C1036.96 168.383 1036.57 166.89 1035.8 165.557C1035.05 164.223 1034 163.17 1032.64 162.397C1031.28 161.65 1029.73 161.277 1028 161.277C1026.27 161.277 1024.72 161.65 1023.36 162.397C1022 163.17 1020.93 164.223 1020.16 165.557C1019.41 166.89 1019.04 168.383 1019.04 170.037Z" fill="black"/>
<path d="M1042 202.347C1042 204.827 1041.59 206.973 1040.76 208.787C1039.93 210.627 1038.76 212.04 1037.24 213.027C1035.72 214.013 1033.92 214.507 1031.84 214.507C1029.79 214.507 1027.99 214.013 1026.44 213.027C1024.92 212.04 1023.75 210.627 1022.92 208.787C1022.12 206.973 1021.72 204.827 1021.72 202.347L1021.72 196.707L1014 196.707L1014 190.227L1042 190.227L1042 202.347ZM1027 201.987C1027 203.933 1027.41 205.413 1028.24 206.427C1029.09 207.44 1030.29 207.947 1031.84 207.947C1033.41 207.947 1034.61 207.44 1035.44 206.427C1036.29 205.413 1036.72 203.933 1036.72 201.987L1036.72 196.707L1027 196.707L1027 201.987Z" fill="black"/>
<path d="M1019.2 240.813L1014 240.813L1014 219.133L1042 219.133L1042 240.293L1036.8 240.293L1036.8 225.573L1030.72 225.573L1030.72 238.573L1025.68 238.573L1025.68 225.573L1019.2 225.573L1019.2 240.813Z" fill="black"/>
<path d="M1014 263.809L1021.8 258.409L1021.8 258.089L1021.8 252.449L1014 252.449L1014 245.969L1042 245.969L1042 258.089C1042 260.569 1041.59 262.716 1040.76 264.529C1039.93 266.369 1038.76 267.782 1037.24 268.769C1035.72 269.756 1033.92 270.249 1031.84 270.249C1029.76 270.249 1027.96 269.742 1026.44 268.729C1024.95 267.742 1023.8 266.329 1023 264.489L1014 270.769L1014 263.809ZM1031.84 263.689C1033.41 263.689 1034.61 263.182 1035.44 262.169C1036.29 261.156 1036.72 259.676 1036.72 257.729L1036.72 252.449L1026.96 252.449L1026.96 257.729C1026.96 259.676 1027.39 261.156 1028.24 262.169C1029.09 263.182 1030.29 263.689 1031.84 263.689Z" fill="black"/>
<path d="M1020 293.823L1020 280.823L1014 278.343L1014 271.703L1042 284.183L1042 290.583L1014 303.103L1014 296.303L1020 293.823ZM1024.92 291.783L1035.64 287.343L1024.92 282.903L1024.92 291.783Z" fill="black"/>
<path d="M1036.72 310.402L1036.72 301.442L1042 301.442L1042 325.842L1036.72 325.842L1036.72 316.882L1014 316.882L1014 310.402L1036.72 310.402Z" fill="black"/>
<path d="M1019.2 351.008L1014 351.008L1014 329.328L1042 329.328L1042 350.488L1036.8 350.488L1036.8 335.768L1030.72 335.768L1030.72 348.768L1025.68 348.768L1025.68 335.768L1019.2 335.768L1019.2 351.008Z" fill="black"/>
</svg>
